<?xml version="1.0" encoding="UTF-8"?>
<svg width="128pt" height="128pt" version="1.1" viewBox="0 0 700 700" xmlns="http://www.w3.org/2000/svg" xmlns:xlink="http://www.w3.org/1999/xlink">
 <g>
  <path fill="#EB2487" d="m338.8 66.414c-2.2383 49.672-34.16 89.602-67.816 131.21-37.91 47.207-77.168 96.039-77.168 163.63 0 89.602 91.281 139.21 154.34 139.21 108.86 0 158.48-72.184 158.48-139.21-0.22656-130.37-104.66-251.27-167.83-294.84zm217.11-49.336h-411.82c-15.121 0-29.621 6.0078-40.312 16.699s-16.699 25.191-16.699 40.312v411.82c-0.074219 15.168 5.9023 29.742 16.602 40.492 10.699 10.754 25.238 16.797 40.41 16.797h411.82c15.219 0.074219 29.832-5.9375 40.594-16.695 10.758-10.762 16.77-25.375 16.695-40.594v-411.82c0-15.172-6.043-29.711-16.797-40.41-10.75-10.699-25.324-16.676-40.492-16.602zm-207.98 499.8c-69.777 0-170.74-55.383-170.74-155.62 0-73.414 42.895-126.79 80.754-173.94 33.098-41.16 64.344-80.023 64.344-126.62 0-2.8008 0-5.6016-0.33594-8.7344l-0.003907 0.003906c-0.21875-3.043 1.2383-5.9648 3.8086-7.6172 2.5977-1.5703 5.8555-1.5703 8.4531 0 63.727 36.398 188.61 170.97 188.61 317.07 0 102.04-87.977 155.46-174.89 155.46z"/>
  </g>
</svg>
